<?xml version="1.0" encoding="UTF-8"?>
<!DOCTYPE svg PUBLIC "-//W3C//DTD SVG 1.1//EN" "http://www.w3.org/Graphics/SVG/1.1/DTD/svg11.dtd">
<!-- Creator: CorelDRAW 2019 (64-Bit) -->
<svg xmlns="http://www.w3.org/2000/svg" xml:space="preserve" width="49.3888mm" height="49.3888mm" version="1.1" style="shape-rendering:geometricPrecision; text-rendering:geometricPrecision; image-rendering:optimizeQuality; fill-rule:evenodd; clip-rule:evenodd"
viewBox="0 0 4938.88 4938.88"
 xmlns:xlink="http://www.w3.org/1999/xlink"
 xmlns:xodm="http://www.corel.com/coreldraw/odm/2003">
 <defs>
  <style type="text/css">
   <![CDATA[
    .fil3 {fill:#FEFEFE}
    .fil2 {fill:#FECC00}
    .fil0 {fill:#0096DB}
    .fil1 {fill:#FEFEFE;fill-rule:nonzero}
   ]]>
  </style>
 </defs>
 <g id="Слой_x0020_1">
  <metadata id="CorelCorpID_0Corel-Layer"/>
  <polygon class="fil0" points="5.62,4908.06 4912.09,4908.06 4912.09,1.59 5.62,1.59 "/>
  <polygon class="fil1" points="828.57,4125.11 828.57,3671.23 962.14,3671.23 962.09,3813.68 1061.21,3671.23 1216.83,3671.23 1059.53,3874.94 1252.65,4125.11 1087.29,4125.11 962.14,3939.67 962.14,4125.11 "/>
  <polygon class="fil1" points="1284.71,3671.23 1407.26,3671.23 1407.26,3933.83 1576.5,3671.23 1707.48,3671.23 1707.48,4125.11 1578.46,4125.11 1578.46,3863.16 1411.79,4125.11 1278.24,4125.11 1278.24,3671.23 "/>
  <polygon class="fil1" points="1812.4,4125.11 1812.4,3671.23 1945.98,3671.23 1945.98,4125.11 "/>
  <path class="fil1" d="M2051.14 3671.23l219.81 0c41.08,0 71.1,7.34 90.13,22.03 19.02,14.71 31.55,30.91 37.61,48.63 3.02,8.23 5.07,16.11 6.16,23.68 1.08,7.56 1.63,14.59 1.63,21.07 0,23.34 -7.03,43.23 -21.09,59.65 -14.04,16.43 -30.58,28.1 -49.61,35.02l0 1.29c5.2,1.31 11.47,3.24 18.81,5.85 7.36,2.59 14.91,6.26 22.7,11.02 13.4,8.2 25.82,20.1 37.27,35.65 11.47,15.57 17.2,36.76 17.2,63.56 0,2.59 -0.11,5.08 -0.33,7.45 -0.2,2.37 -0.31,4.87 -0.31,7.46 -3.04,27.67 -16.02,53.16 -38.91,76.52 -22.93,23.35 -59.22,35 -108.94,35l-238.62 0 0 -453.88 6.49 0zm127.08 363.11l51.88 0c3.46,0 7.99,-0.11 13.62,-0.33 5.6,-0.21 11.24,-0.98 16.86,-2.26 9.51,-2.16 18.15,-6.59 25.93,-13.3 7.78,-6.7 11.67,-17.4 11.67,-32.09 0,-14.28 -3.99,-24.53 -11.99,-30.8 -7.99,-6.27 -16.54,-10.49 -25.61,-12.64 -5.19,-0.87 -10.28,-1.42 -15.24,-1.64 -4.97,-0.22 -9.19,-0.32 -12.65,-0.32l-54.47 0 0 93.38zm0 -184.16l46.69 0c18.59,0 31.99,-2.91 40.19,-8.74 8.23,-5.84 13.63,-12.43 16.22,-19.78 0.87,-2.6 1.41,-5.08 1.62,-7.45 0.22,-2.38 0.33,-4.65 0.33,-6.82 0,-11.67 -4.22,-22.16 -12.64,-31.44 -8.43,-9.31 -23.67,-13.94 -45.72,-13.94l-46.69 0 0 88.17z"/>
  <polygon class="fil1" points="3021.11,4125.11 3021.11,3795.8 2894.91,3795.8 2894.91,3671.23 3280.88,3671.23 3280.88,3795.8 3154.68,3795.8 3154.68,4125.11 "/>
  <path class="fil1" d="M3219.59 4125.11l161.46 -453.88 160.8 0 160.79 453.88 -142.62 0 -24.66 -78.45 -147.82 0 -25.28 78.45 -142.67 0zm241.87 -338.47l-48.64 160.17 97.27 0 -48.63 -160.17z"/>
  <path class="fil1" d="M3726.03 4125.11l0 -453.88 197.77 0c48.4,0 84.6,10.36 108.59,31.11 23.99,20.76 40.11,43.66 48.29,68.74 3.04,9.08 5.19,18.05 6.49,26.91 1.31,8.85 1.98,27.92 1.98,35.7 0,7.78 -0.67,16.1 -1.98,24.96 -1.3,8.85 -3.6,17.78 -6.49,26.9 -7.9,25.04 -23.74,48.11 -47.98,69.07 -24.2,20.96 -60.5,31.45 -108.9,31.45l-64.2 0 0 139.04 -133.57 0zm133.57 -354.03l0 115.12 29.84 0c18.59,0 32.17,-3.02 40.82,-9.08 8.64,-6.05 14.67,-12.46 17.49,-19.44 1.91,-4.69 2.83,-9.29 3.29,-13.62 0.42,-4.32 0.63,-7.79 0.63,-10.37 0,-2.6 -0.11,-15.92 -0.32,-18.51 -0.24,-2.59 -0.56,-5.2 -0.98,-7.79 -2.16,-9.07 -7.59,-17.39 -16.2,-24.97 -8.64,-7.55 -23.56,-11.34 -44.73,-11.34l-29.84 0z"/>
  <path class="fil1" d="M2702.52 4138.12l-3.7 -0.01 -0.06 0 -3.62 -0.06 -0.13 0 -3.53 -0.07 -0.18 0c-74.03,-2.19 -130.81,-26.14 -170.35,-71.85 -34.35,-39.73 -54.49,-84.93 -60.4,-135.64l-0.03 -0.2 -0.28 -2.68 -0.03 -0.18 -0.26 -2.7 -0.03 -0.18 -0.24 -2.74c-0.25,-2.91 -0.44,-5.81 -0.59,-8.76l-0.01 -0.1 -0.13 -2.85 0 -0.07 -0.09 -2.88 0 -0.06 -0.09 -2.92 0 -0.04 -0.05 -2.95 0 -0.01 -0.02 -2.98 0.02 -2.96 0 -0.02 0.05 -2.95 0 -0.03 0.09 -2.92 0 -0.05 0.09 -2.88 0 -0.1 0.13 -2.84 0.01 -0.09c0.15,-2.95 0.34,-5.87 0.59,-8.78l0.24 -2.71 0.03 -0.18 0.26 -2.7 0.03 -0.2 0.28 -2.66 0.03 -0.2c5.91,-50.71 26.05,-95.94 60.4,-135.68 39.52,-45.7 96.31,-69.64 170.35,-71.81l0.18 0 3.53 -0.09 0.13 0 3.62 -0.07 0.06 0 3.7 -0.01 6.49 0.65c17.91,0.08 34.84,1.36 50.8,3.76 52.42,9.79 89.49,35.39 121.01,72.58 2.24,2.65 4.41,5.32 6.52,8.02l-91.87 73.86c-1.79,-2.63 -3.69,-5.11 -5.73,-7.45 -16.82,-19.38 -35.4,-31.92 -55.79,-37.66l-0.01 0 -0.94 -0.28c-4.77,-1.73 -9.5,-2.92 -14.27,-3.57 -2.71,-0.37 -5.36,-0.62 -7.94,-0.77l-0.23 -0.01 -0.29 -0.03 -0.03 0 -0.35 -0.01 -0.05 0 -0.01 -0.02 -0.42 0 -0.19 -0.03 0 0 -0.41 -0.01 -0.29 0 -0.27 -0.03 -0.67 -0.01 -0.02 0 -0.68 -0.03 -0.24 0 -0.67 -0.01 -0.05 0 -0.16 -0.02 -0.23 0.02 -0.23 0 0 0 -0.17 -0.02 -0.25 0.02 -0.03 0 -0.88 0.01 -0.01 0c-4.4,0.07 -8.85,0.49 -13.44,1.28 -3.62,0.64 -7.24,1.51 -10.75,2.62l-0.22 0.06 -0.24 0.08 -0.21 0.08 0 0 -0.23 0.07 0 0 -0.22 0.07 -0.01 0 -0.21 0.08 -0.01 0 -0.23 0.07 0 0 -0.21 0.08 -0.02 0 -0.22 0.06 -0.01 0 -0.21 0.08 0 0 -0.22 0.07 -0.22 0.08 -0.25 0.07 -0.2 0.08 -0.24 0.09 -0.22 0.08 -0.23 0.07c-19.89,6.05 -38.16,18.91 -54.81,38.58 -16.63,19.67 -24.97,48.75 -24.97,87.22 0,38.46 8.34,67.55 24.97,87.22 16.65,19.66 34.92,32.53 54.81,38.58l0.23 0.09 0.22 0.08 0.24 0.08 0.2 0.08 0.25 0.07 0.22 0.08 0.22 0.07 0 0 0.21 0.09 0.01 0 0.22 0.06 0.02 0 0.21 0.09 0 0 0.23 0.08 0.01 0 0.21 0.07 0.01 0 0.22 0.08 0 0 0.23 0.07 0 0 0.21 0.08 0.02 0 0.21 0.06 0.01 0 0.22 0.08 0.01 0c3.53,1.09 7.1,1.94 10.74,2.58 4.33,0.76 8.58,1.18 12.74,1.28l0.06 0 0.85 0.01 1.13 0 1.93 0 0.26 -0.01 0.7 -0.03 0 0 0.39 -0.01 0.23 0 0 -0.02 0.06 0 0.28 -0.01 0.07 0 0.05 0 0.29 -0.01 0.13 0 0.3 -0.02 0.11 0 0.76 -0.07 0.04 0c2.53,-0.15 5.15,-0.41 7.83,-0.78 4.77,-0.65 9.5,-1.85 14.27,-3.57l0.94 -0.26 0.01 0c20.39,-5.75 38.97,-18.32 55.79,-37.68 2.04,-2.35 3.94,-4.83 5.73,-7.47l91.87 73.88c-2.11,2.69 -4.28,5.37 -6.52,8.02 -31.44,37.11 -68.41,62.71 -120.66,72.54 -16.07,2.45 -33.1,3.71 -51.15,3.8l-6.49 0.65z"/>
  <path class="fil2" d="M1730.47 3379.84c65.6,0 118.8,53.21 118.8,118.8 0,65.6 -53.2,118.8 -118.8,118.8 -65.58,0 -118.79,-53.2 -118.79,-118.8 0,-65.59 53.21,-118.8 118.79,-118.8zm297.43 0c65.6,0 118.79,53.21 118.79,118.8 0,65.6 -53.19,118.8 -118.79,118.8 -65.59,0 -118.78,-53.2 -118.78,-118.8 0,-65.59 53.19,-118.8 118.78,-118.8z"/>
  <path class="fil3" d="M2467.59 771.52l0 0c90.27,0 164.11,73.87 164.11,164.11l0 610.08c0,90.28 -73.84,164.13 -164.11,164.13l0 0c-90.27,0 -164.11,-73.85 -164.11,-164.13l0 -610.08c0,-90.24 73.84,-164.11 164.11,-164.11z"/>
  <path class="fil3" d="M1228.41 1671.89l0 0c27.89,-85.85 120.93,-133.26 206.78,-105.37l580.21 188.53c85.86,27.89 133.26,120.94 105.37,206.79l0 0c-27.89,85.85 -120.95,133.26 -206.79,105.36l-580.22 -188.51c-85.84,-27.91 -133.26,-120.95 -105.35,-206.8z"/>
  <path class="fil3" d="M1701.75 3128.65l0 0c-73.02,-53.05 -89.35,-156.2 -36.3,-229.22l358.59 -493.56c53.04,-73.04 156.2,-89.38 229.23,-36.31l0 0c73.03,53.06 89.36,156.2 36.31,229.22l-358.6 493.56c-53.05,73.04 -156.2,89.38 -229.23,36.31z"/>
  <path class="fil3" d="M3233.51 3128.64l0 0c-73.04,53.05 -176.18,36.71 -229.25,-36.31l-358.58 -493.56c-53.07,-73.04 -36.73,-176.18 36.29,-229.24l0 0c73.03,-53.05 176.19,-36.71 229.24,36.3l358.59 493.57c53.06,73.02 36.71,176.18 -36.29,229.24z"/>
  <path class="fil3" d="M3706.81 1671.85l0 0c27.9,85.85 -19.51,178.91 -105.38,206.8l-580.2 188.51c-85.85,27.9 -178.89,-19.51 -206.8,-105.36l0 0c-27.89,-85.84 19.51,-178.9 105.37,-206.79l580.21 -188.53c85.83,-27.89 178.89,19.53 206.8,105.37z"/>
 </g>
</svg>
