<?xml version="1.0" encoding="utf-8"?><!-- Uploaded to: SVG Repo, www.svgrepo.com, Generator: SVG Repo Mixer Tools -->
<svg width="800px" height="800px" viewBox="0 0 24 24" fill="none" xmlns="http://www.w3.org/2000/svg">
<path d="M11.7 4.25C11.2858 4.24999 10.95 4.58577 10.95 4.99998C10.95 5.4142 11.2858 5.74999 11.7 5.75L11.7 4.25ZM13.5652 5.376L13.8555 4.68446L13.8552 4.68435L13.5652 5.376ZM15.7531 7.2L15.1268 7.61262L15.1272 7.6133L15.7531 7.2ZM16.575 9.94L17.325 9.94L17.325 9.93883L16.575 9.94ZM15.1466 13.433L14.536 12.9976C14.5271 13.01 14.5186 13.0228 14.5105 13.0357L15.1466 13.433ZM13.7309 15.7L13.0948 15.3027L13.0922 15.3069L13.7309 15.7ZM11.7 19L11.0617 19.3937C11.1983 19.6153 11.4401 19.7501 11.7004 19.75C11.9607 19.7499 12.2023 19.6148 12.3387 19.3931L11.7 19ZM9.66909 15.707L10.3075 15.3133L10.3055 15.3102L9.66909 15.707ZM8.25339 13.436L8.88985 13.0392C8.88178 13.0263 8.87332 13.0136 8.86447 13.0012L8.25339 13.436ZM6.82501 9.943L6.07501 9.94227V9.943H6.82501ZM7.64694 7.2L8.27278 7.6133L8.27282 7.61324L7.64694 7.2ZM9.83484 5.379L10.1247 6.07072L10.126 6.07018L9.83484 5.379ZM11.7011 5.75C12.1154 5.74937 12.4506 5.41308 12.45 4.99887C12.4494 4.58465 12.1131 4.24938 11.6989 4.25L11.7011 5.75ZM11.7 10.837C11.2858 10.837 10.95 11.1728 10.95 11.587C10.95 12.0012 11.2858 12.337 11.7 12.337V10.837ZM11.7 7.543C11.2858 7.543 10.95 7.87879 10.95 8.293C10.95 8.70721 11.2858 9.043 11.7 9.043L11.7 7.543ZM11.719 12.3428C12.133 12.3323 12.4602 11.9881 12.4498 11.574C12.4393 11.16 12.0951 10.8328 11.6811 10.8432L11.719 12.3428ZM10.2764 10.7817L10.927 10.4085L10.927 10.4085L10.2764 10.7817ZM10.2764 9.11131L9.62584 8.73812L9.62584 8.73812L10.2764 9.11131ZM11.6811 9.04976C12.0951 9.06023 12.4393 8.73303 12.4498 8.31895C12.4602 7.90487 12.133 7.56071 11.719 7.55024L11.6811 9.04976ZM11.7 5.75C12.2396 5.75001 12.7746 5.85774 13.2751 6.06765L13.8552 4.68435C13.1717 4.39771 12.4396 4.25002 11.7 4.25L11.7 5.75ZM13.2749 6.06754C14.0246 6.38224 14.6697 6.91882 15.1268 7.61262L16.3794 6.78738C15.761 5.84877 14.8836 5.11602 13.8555 4.68446L13.2749 6.06754ZM15.1272 7.6133C15.58 8.29886 15.8237 9.10956 15.825 9.94117L17.325 9.93883C17.3233 8.81655 16.9945 7.71889 16.3789 6.7867L15.1272 7.6133ZM15.825 9.94C15.825 10.5044 15.7399 10.9165 15.5556 11.3427C15.3608 11.7931 15.0461 12.2822 14.536 12.9976L15.7573 13.8684C16.269 13.1508 16.6684 12.5484 16.9324 11.9381C17.2068 11.3035 17.325 10.6856 17.325 9.94H15.825ZM14.5105 13.0357L13.0948 15.3027L14.3671 16.0973L15.7828 13.8303L14.5105 13.0357ZM13.0922 15.3069L11.0613 18.6069L12.3387 19.3931L14.3697 16.0931L13.0922 15.3069ZM12.3384 18.6063L10.3074 15.3133L9.03073 16.1007L11.0617 19.3937L12.3384 18.6063ZM10.3055 15.3102L8.88985 13.0392L7.61693 13.8328L9.03263 16.1038L10.3055 15.3102ZM8.86447 13.0012C8.35405 12.2838 8.03922 11.7947 7.84433 11.3444C7.66008 10.9186 7.57501 10.5073 7.57501 9.943H6.07501C6.07501 10.6887 6.19324 11.3059 6.46772 11.9401C6.73157 12.5498 7.13093 13.1522 7.6423 13.8708L8.86447 13.0012ZM7.57501 9.94373C7.57582 9.11123 7.81958 8.29958 8.27278 7.6133L7.02109 6.7867C6.40485 7.71986 6.0761 8.81882 6.07501 9.94227L7.57501 9.94373ZM8.27282 7.61324C8.73027 6.92039 9.37536 6.38473 10.1247 6.07072L9.54497 4.68728C8.51733 5.11791 7.63993 5.84942 7.02105 6.78676L8.27282 7.61324ZM10.126 6.07018C10.6264 5.8594 11.1613 5.75081 11.7011 5.75L11.6989 4.25C10.9591 4.25112 10.227 4.39999 9.54369 4.68782L10.126 6.07018ZM11.7 12.337C12.551 12.337 13.3277 11.8714 13.7443 11.1314L12.4371 10.3956C12.28 10.6748 11.9964 10.837 11.7 10.837V12.337ZM13.7443 11.1314C14.1597 10.3934 14.1597 9.4866 13.7443 8.7486L12.4371 9.4844C12.5954 9.76557 12.5954 10.1144 12.4371 10.3956L13.7443 11.1314ZM13.7443 8.7486C13.3277 8.00864 12.551 7.543 11.7 7.543L11.7 9.043C11.9964 9.043 12.28 9.2052 12.4371 9.4844L13.7443 8.7486ZM11.6811 10.8432C11.38 10.8508 11.0889 10.6908 10.927 10.4085L9.62584 11.1549C10.0553 11.9036 10.8541 12.3646 11.719 12.3428L11.6811 10.8432ZM10.927 10.4085C10.7638 10.1241 10.7638 9.76886 10.927 9.4845L9.62584 8.73812C9.19755 9.48474 9.19755 10.4083 9.62584 11.1549L10.927 10.4085ZM10.927 9.4845C11.0889 9.20225 11.38 9.04215 11.6811 9.04976L11.719 7.55024C10.8541 7.52838 10.0553 7.9894 9.62584 8.73812L10.927 9.4845Z" fill="#000000"/>
</svg>